<mxfile host="app.diagrams.net" agent="Mozilla/5.0 (Macintosh; Intel Mac OS X 10_15_7) AppleWebKit/537.36 (KHTML, like Gecko) Chrome/133.0.0.0 Safari/537.36" version="27.1.5" pages="2">
  <diagram name="Page-1" id="HZlaW5LuWjF_DTIY0Aqa">
    <mxGraphModel dx="1228" dy="601" grid="1" gridSize="10" guides="1" tooltips="1" connect="1" arrows="1" fold="1" page="1" pageScale="1" pageWidth="827" pageHeight="1169" math="0" shadow="0">
      <root>
        <mxCell id="0" />
        <mxCell id="1" parent="0" />
        <mxCell id="Wg8yybI0an-Qy0zRMAbL-1" value="" style="outlineConnect=0;dashed=0;verticalLabelPosition=bottom;verticalAlign=top;align=center;html=1;shape=mxgraph.aws3.lambda_function;fillColor=#F58534;gradientColor=none;" vertex="1" parent="1">
          <mxGeometry x="140" y="150" width="69" height="70" as="geometry" />
        </mxCell>
        <mxCell id="Wg8yybI0an-Qy0zRMAbL-3" style="edgeStyle=orthogonalEdgeStyle;rounded=0;orthogonalLoop=1;jettySize=auto;html=1;" edge="1" parent="1" source="Wg8yybI0an-Qy0zRMAbL-1">
          <mxGeometry relative="1" as="geometry">
            <mxPoint x="340" y="184" as="targetPoint" />
          </mxGeometry>
        </mxCell>
        <mxCell id="nxFqH9ligxxi5ejMHSMg-8" style="edgeStyle=orthogonalEdgeStyle;rounded=0;orthogonalLoop=1;jettySize=auto;html=1;" edge="1" parent="1" source="nxFqH9ligxxi5ejMHSMg-1">
          <mxGeometry relative="1" as="geometry">
            <mxPoint x="390" y="230" as="targetPoint" />
          </mxGeometry>
        </mxCell>
        <mxCell id="nxFqH9ligxxi5ejMHSMg-1" value="" style="outlineConnect=0;dashed=0;verticalLabelPosition=bottom;verticalAlign=top;align=center;html=1;shape=mxgraph.aws3.cloudwatch;fillColor=#759C3E;gradientColor=none;" vertex="1" parent="1">
          <mxGeometry x="140" y="270" width="70" height="80" as="geometry" />
        </mxCell>
        <mxCell id="nxFqH9ligxxi5ejMHSMg-2" style="edgeStyle=orthogonalEdgeStyle;rounded=0;orthogonalLoop=1;jettySize=auto;html=1;entryX=0.5;entryY=0.05;entryDx=0;entryDy=0;entryPerimeter=0;" edge="1" parent="1" source="Wg8yybI0an-Qy0zRMAbL-1" target="nxFqH9ligxxi5ejMHSMg-1">
          <mxGeometry relative="1" as="geometry" />
        </mxCell>
        <mxCell id="nxFqH9ligxxi5ejMHSMg-3" value="Cloudwatch" style="text;html=1;align=center;verticalAlign=middle;whiteSpace=wrap;rounded=0;" vertex="1" parent="1">
          <mxGeometry x="140" y="350" width="60" height="30" as="geometry" />
        </mxCell>
        <mxCell id="nxFqH9ligxxi5ejMHSMg-4" value="Coralogix" style="rhombus;whiteSpace=wrap;html=1;" vertex="1" parent="1">
          <mxGeometry x="350" y="145" width="80" height="80" as="geometry" />
        </mxCell>
        <mxCell id="nxFqH9ligxxi5ejMHSMg-5" value="logs" style="text;html=1;align=center;verticalAlign=middle;whiteSpace=wrap;rounded=0;" vertex="1" parent="1">
          <mxGeometry x="170" y="240" width="60" height="30" as="geometry" />
        </mxCell>
      </root>
    </mxGraphModel>
  </diagram>
  <diagram id="alE9MI_3AK4240xLNcxT" name="Page-2">
    <mxGraphModel grid="1" page="1" gridSize="10" guides="1" tooltips="1" connect="1" arrows="1" fold="1" pageScale="1" pageWidth="827" pageHeight="1169" math="0" shadow="0">
      <root>
        <mxCell id="0" />
        <mxCell id="1" parent="0" />
      </root>
    </mxGraphModel>
  </diagram>
</mxfile>
